<svg width="360" height="360" viewBox="0 0 360 360" fill="none" xmlns="http://www.w3.org/2000/svg">
<g clip-path="url(#clip0_45_17)">
<rect width="360" height="360" fill="white"/>
<circle cx="180" cy="180" r="175" stroke="black" stroke-width="10"/>
<path d="M261.104 156C247.24 156 236.793 152.152 226.24 141.454C220.709 135.846 217.278 126.783 222.81 121.175C228.341 115.568 234.577 134.686 242.914 139.189C253 149.415 292.076 143.538 289.904 125.226C289.904 122.224 293.867 115.568 299.398 121.175C304.93 126.783 300.741 138.383 295.21 143.991C284.656 154.689 274.967 156 261.104 156Z" fill="black"/>
<path d="M107.899 156C121.424 156 131.616 152.256 141.912 141.847C147.309 136.391 150.655 127.572 145.259 122.117C139.862 116.661 133.779 135.262 125.645 139.644C115.805 149.593 77.682 143.875 79.8008 126.058C79.8008 123.137 75.9344 116.661 70.5381 122.117C65.1417 127.572 69.2285 138.859 74.6249 144.315C84.9207 154.725 94.3734 156 107.899 156Z" fill="black"/>
<path d="M180.754 269C155.664 269 132.057 259.215 114.294 241.453C108.774 235.932 108.774 227.009 114.294 221.488C119.815 215.968 128.191 232.878 133.711 238.399C159.352 264.04 205.144 261.8 230.785 236.159C236.305 230.638 241.694 215.968 247.215 221.488C252.735 227.009 252.735 235.932 247.215 241.453C229.452 259.215 205.845 269 180.754 269Z" fill="black"/>
</g>
<defs>
<clipPath id="clip0_45_17">
<rect width="360" height="360" fill="white"/>
</clipPath>
</defs>
</svg>
